<svg id="Layer_1" data-name="Layer 1" xmlns="http://www.w3.org/2000/svg" xmlns:xlink="http://www.w3.org/1999/xlink" viewBox="0 0 400 593"><defs><style>.cls-1,.cls-2{fill:#fff;}.cls-2,.cls-20{fill-rule:evenodd;}.cls-3{fill:url(#linear-gradient);}.cls-4{fill:none;}.cls-5{mask:url(#mask);}.cls-6{fill:#242742;}.cls-7{fill:url(#linear-gradient-2);}.cls-8{mask:url(#mask-2);}.cls-9{fill:url(#linear-gradient-4);}.cls-10{mask:url(#mask-3);}.cls-11{fill:url(#linear-gradient-5);}.cls-12{fill:url(#linear-gradient-6);}.cls-13{fill:url(#linear-gradient-7);}.cls-14{fill:#babbdb;}.cls-15{fill:#ff6464;}.cls-16{fill:#ff9255;}.cls-17{fill:#6bd4a8;}.cls-18{mask:url(#mask-4);}.cls-19{fill:url(#linear-gradient-8);}.cls-20{fill:url(#linear-gradient-9);}</style><linearGradient id="linear-gradient" x1="283.28" y1="25.17" x2="116.72" y2="567.83" gradientUnits="userSpaceOnUse"><stop offset="0" stop-color="#ff6a3a"/><stop offset="1" stop-color="#ff527b"/></linearGradient><mask id="mask" x="-192" y="0" width="754" height="593" maskUnits="userSpaceOnUse"><g id="c"><rect id="a" class="cls-1" width="400" height="593" rx="16"/></g></mask><linearGradient id="linear-gradient-2" x1="-96.56" y1="717.08" x2="-95.79" y2="716.65" gradientTransform="matrix(401, 0, 0, -259, 38624, 186035.51)" gradientUnits="userSpaceOnUse"><stop offset="0" stop-color="#ff3e83"/><stop offset="1" stop-color="#ff9f2e"/></linearGradient><mask id="mask-2" x="-176" y="226" width="548" height="402" maskUnits="userSpaceOnUse"><g id="l"><path id="i" class="cls-2" d="M-176,237a11,11,0,0,1,11-11H214a11,11,0,0,1,11,11V474a11,11,0,0,1-11,11H-165a11,11,0,0,1-11-11Z"/></g></mask><linearGradient id="linear-gradient-4" x1="-96.19" y1="717.5" x2="-96.19" y2="716.5" gradientTransform="matrix(316, 0, 0, -316, 30611, 227041.24)" gradientUnits="userSpaceOnUse"><stop offset="0" stop-color="#ffb443"/><stop offset="1" stop-color="#ff5b64" stop-opacity="0"/></linearGradient><mask id="mask-3" x="-197.55" y="33.45" width="422.55" height="451.55" maskUnits="userSpaceOnUse"><g id="l-2" data-name="l"><path id="i-2" data-name="i" class="cls-2" d="M-176,237a11,11,0,0,1,11-11H214a11,11,0,0,1,11,11V474a11,11,0,0,1-11,11H-165a11,11,0,0,1-11-11Z"/></g></mask><linearGradient id="linear-gradient-5" x1="-96.99" y1="717.95" x2="-96.99" y2="716.95" gradientTransform="matrix(-223.45, -223.45, -223.45, 223.45, 138598.67, -181792.81)" xlink:href="#linear-gradient-4"/><linearGradient id="linear-gradient-6" x1="-96.28" y1="717.4" x2="-96.28" y2="716.4" gradientTransform="matrix(433, 0, 0, -251, 42033, 180181.39)" gradientUnits="userSpaceOnUse"><stop offset="0" stop-color="#f8f8f8"/><stop offset="1" stop-color="#eee"/></linearGradient><linearGradient id="linear-gradient-7" x1="-95.49" y1="717.4" x2="-95.49" y2="716.4" gradientTransform="matrix(96, 0, 0, -251, 9344, 180181.39)" gradientUnits="userSpaceOnUse"><stop offset="0" stop-color="#cacbe8"/><stop offset="1" stop-color="#eee"/><stop offset="1" stop-color="#cacbe8"/></linearGradient><mask id="mask-4" x="235" y="93" width="120" height="130" maskUnits="userSpaceOnUse"><g id="s"><path id="q" class="cls-2" d="M246,97a4,4,0,0,1,4-4h90a4,4,0,0,1,4,4V219a4,4,0,0,1-4,4H250a4,4,0,0,1-4-4Z"/></g></mask><linearGradient id="linear-gradient-8" x1="-95.22" y1="716.1" x2="-96.12" y2="715.65" gradientTransform="matrix(120, 0, 0, -81, 11778.01, 58146.17)" gradientUnits="userSpaceOnUse"><stop offset="0" stop-color="#ff9049"/><stop offset="1" stop-color="#ff5e5e"/></linearGradient><linearGradient id="linear-gradient-9" x1="-95.46" y1="716.56" x2="-95.46" y2="715.56" gradientTransform="matrix(93, 0, 0, -93, 9237, 66907.77)" gradientUnits="userSpaceOnUse"><stop offset="0" stop-color="#ff6a3d"/><stop offset="1" stop-color="#ff5b66"/></linearGradient></defs><rect class="cls-3" width="400" height="593"/><rect class="cls-4" width="400" height="593" rx="16"/><g class="cls-5"><path id="e" d="M-192,237a26,26,0,0,1,26-26H215a26,26,0,0,1,26,26V474a26,26,0,0,1-26,26H-166a26,26,0,0,1-26-26Z"/><path id="e-2" data-name="e" class="cls-6" d="M-192,237a26,26,0,0,1,26-26H215a26,26,0,0,1,26,26V474a26,26,0,0,1-26,26H-166a26,26,0,0,1-26-26Z"/><path id="g" d="M-176,237a11,11,0,0,1,11-11H214a11,11,0,0,1,11,11V474a11,11,0,0,1-11,11H-165a11,11,0,0,1-11-11Z"/><path id="g-2" data-name="g" class="cls-7" d="M-176,237a11,11,0,0,1,11-11H214a11,11,0,0,1,11,11V474a11,11,0,0,1-11,11H-165a11,11,0,0,1-11-11Z"/><path id="i-3" data-name="i" d="M-176,237a11,11,0,0,1,11-11H214a11,11,0,0,1,11,11V474a11,11,0,0,1-11,11H-165a11,11,0,0,1-11-11Z"/><path id="i-4" data-name="i" class="cls-7" d="M-176,237a11,11,0,0,1,11-11H214a11,11,0,0,1,11,11V474a11,11,0,0,1-11,11H-165a11,11,0,0,1-11-11Z"/><g class="cls-8"><circle class="cls-9" cx="214" cy="470" r="158"/></g><g class="cls-10"><circle class="cls-11" cx="-39.55" cy="191.45" r="158"/></g><path id="n" d="M129,126a11,11,0,0,1,11-11H551a11,11,0,0,1,11,11V355a11,11,0,0,1-11,11H140a11,11,0,0,1-11-11Z"/><path id="n-2" data-name="n" class="cls-12" d="M129,126a11,11,0,0,1,11-11H551a11,11,0,0,1,11,11V355a11,11,0,0,1-11,11H140a11,11,0,0,1-11-11Z"/><path class="cls-13" d="M129,126a11,11,0,0,1,11-11h85V366H140a11,11,0,0,1-11-11Z"/><path class="cls-14" d="M143,165.5a3.5,3.5,0,0,1,3.5-3.5h61a3.5,3.5,0,0,1,0,7h-61A3.5,3.5,0,0,1,143,165.5Zm0,20a3.5,3.5,0,0,1,3.5-3.5h54a3.5,3.5,0,0,1,0,7h-54A3.5,3.5,0,0,1,143,185.5Zm0,20a3.5,3.5,0,0,1,3.5-3.5h61a3.5,3.5,0,0,1,0,7h-61a3.5,3.5,0,0,1-3.5-3.5Zm0,20a3.5,3.5,0,0,1,3.5-3.5h39a3.5,3.5,0,0,1,0,7h-39A3.5,3.5,0,0,1,143,225.5Z"/><path class="cls-6" d="M129,126a11,11,0,0,1,11-11H551a11,11,0,0,1,11,11v20H129Z"/><circle class="cls-15" cx="151.5" cy="130.5" r="6.5"/><circle class="cls-16" cx="173.5" cy="130.5" r="6.5"/><circle class="cls-17" cx="195.5" cy="130.5" r="6.5"/><path class="cls-1" d="M246,97a4,4,0,0,1,4-4h90a4,4,0,0,1,4,4V219a4,4,0,0,1-4,4H250a4,4,0,0,1-4-4Z"/><path id="q-2" data-name="q" class="cls-1" d="M246,97a4,4,0,0,1,4-4h90a4,4,0,0,1,4,4V219a4,4,0,0,1-4,4H250a4,4,0,0,1-4-4Z"/><g class="cls-18"><path class="cls-19" d="M354.12,121.88a3,3,0,0,1,0,4.24h0l-25.27,25.29a11.14,11.14,0,0,1-15.75,0,5.13,5.13,0,0,0-7.26,0h0l-17.43,17.44a8.67,8.67,0,0,1-12.26,0h0a2.67,2.67,0,0,0-3.77,0h0l-32.25,32.27a3,3,0,0,1-4.24-4.24h0l32.25-32.27a8.66,8.66,0,0,1,12.25,0h0a2.67,2.67,0,0,0,3.77,0h0l17.43-17.44a11.14,11.14,0,0,1,15.75,0,5.13,5.13,0,0,0,7.26,0h0l25.28-25.29a3,3,0,0,1,4.24,0Z"/></g><path class="cls-1" d="M295,243a4,4,0,0,1,4-4H419a4,4,0,0,1,4,4V387a4,4,0,0,1-4,4H299a4,4,0,0,1-4-4Z"/><path class="cls-20" d="M359.5,347A32.5,32.5,0,1,0,327,314.5,32.5,32.5,0,0,0,359.5,347Zm0,14A46.5,46.5,0,1,0,313,314.5,46.5,46.5,0,0,0,359.5,361Z"/><path class="cls-6" d="M342.61,309.72a7.8,7.8,0,0,0,1.77,5.39,6.13,6.13,0,0,0,4.81,2,5.31,5.31,0,0,0,4.42-2,7.82,7.82,0,0,0,1.61-5h-1.17a3.83,3.83,0,0,1-1,2.74,3.12,3.12,0,0,1-2.37,1,2.61,2.61,0,0,1-2.25-1,5.2,5.2,0,0,1-.74-3,5.54,5.54,0,0,1,.74-3.25,2.59,2.59,0,0,1,2.22-1,2.78,2.78,0,0,1,2.45,1.3c.58.86.88,2.41.88,4.64l.14.62c0,3.3-.73,5.65-2.17,7a8.47,8.47,0,0,1-6.14,2.07h-.71v4H346q6.38-.08,9.74-3.46a12.46,12.46,0,0,0,3.37-9.17v-.81q0-5.19-2.32-7.5a9.08,9.08,0,0,0-11.93-.19,7.6,7.6,0,0,0-2.2,5.72ZM369.92,325h4.83V302.25h-4.52l-10.11,14.56v3.44h17.15v-3.89h-4.94l-.81.08H365l4.82-7.56H370v9.59l-.08.55v6Z"/></g></svg>